<svg version="1.1" id="Layer_1" xmlns="http://www.w3.org/2000/svg" xmlns:xlink="http://www.w3.org/1999/xlink" x="0px" y="0px" width="100%" viewBox="0 0 1024 1024" enable-background="new 0 0 1024 1024" xml:space="preserve">

<path fill="#00F1FE" opacity="1.000000" stroke="none" d="
M486.970551,645.176941 
	C489.547211,644.757690 492.123871,644.338501 495.302856,643.821228 
	C486.849976,630.301697 484.113434,616.831299 487.750336,602.310242 
	C488.250458,601.542419 488.227814,600.765930 488.205139,599.989502 
	C488.165344,599.543396 488.125519,599.097229 488.338470,598.071960 
	C488.464569,596.326233 488.337921,595.159607 488.211304,593.993042 
	C488.166718,592.925293 488.122131,591.857483 488.319397,590.175598 
	C488.440704,588.704346 488.320190,587.847168 488.199677,586.990051 
	C488.160889,582.634949 488.122101,578.279846 488.267944,573.360352 
	C488.597290,572.465149 488.517914,572.195496 488.214478,571.986877 
	C488.169159,571.237488 488.123840,570.488037 488.343597,569.039673 
	C488.470428,565.557312 488.332153,562.773804 488.193909,559.990356 
	C488.149628,558.601257 488.105377,557.212158 488.308533,555.158569 
	C488.432953,553.325989 488.309998,552.157959 488.187012,550.989868 
	C488.146179,550.546082 488.105316,550.102295 488.286804,549.157959 
	C488.424225,548.102295 488.339264,547.547180 488.254303,546.992004 
	C486.746277,546.659607 485.241089,546.055054 483.729767,546.039429 
	C474.611206,545.944580 465.490540,546.053406 456.372131,545.950989 
	C451.688965,545.898376 447.009094,545.549377 442.528534,545.343567 
	C442.010376,537.762634 441.310547,530.925171 441.275055,524.084167 
	C441.268066,522.744263 443.833740,521.391052 445.854370,520.220215 
	C448.342834,520.225647 450.189880,520.054871 452.036896,519.884033 
	C456.055786,519.944580 460.074646,520.005127 464.769287,520.310547 
	C466.297485,520.434937 467.149902,520.314514 468.002350,520.194031 
	C472.364136,520.147644 476.725952,520.101257 481.767242,520.294250 
	C483.298798,520.415161 484.150848,520.296692 485.002899,520.178284 
	C485.441406,520.127625 485.879883,520.076965 486.803253,520.173706 
	C487.710724,520.279968 488.133362,520.238770 488.555969,520.197632 
	C488.370026,519.797119 488.184113,519.396606 487.998169,518.996155 
	C488.020477,518.547302 488.042816,518.098511 488.319580,517.070312 
	C488.448578,515.325928 488.323151,514.160828 488.197723,512.995728 
	C488.156647,508.636871 488.115570,504.278046 488.257324,499.355225 
	C488.584045,498.469116 488.509399,498.203003 488.216217,497.992889 
	C488.154938,491.636017 488.093658,485.279175 488.292206,478.204041 
	C488.547760,476.342926 490.564026,473.841858 486.960602,475.118286 
	C474.013397,475.078369 461.064819,474.917572 448.119751,475.065155 
	C443.684723,475.115753 441.732391,473.611816 441.951874,469.039490 
	C442.190430,464.069397 442.229645,459.066833 441.945282,454.101929 
	C441.723206,450.224792 442.908112,448.884827 446.964966,448.932678 
	C460.566925,449.093231 474.173584,448.856323 488.119629,448.275818 
	C488.579163,447.452515 488.490143,447.189850 488.193787,446.992065 
	C488.154968,439.634369 488.116150,432.276703 488.337585,424.181396 
	C488.464233,421.960999 488.330658,420.478210 488.197083,418.995453 
	C488.142029,414.646881 488.086975,410.298340 488.131653,405.458923 
	C488.146240,404.989044 488.061035,405.009949 487.975861,405.030884 
	C474.380157,405.024719 460.781586,404.860229 447.190430,405.105499 
	C442.920197,405.182556 441.823547,403.719818 441.906647,399.666473 
	C442.023468,393.964905 441.220520,388.247803 441.252014,382.539764 
	C441.266968,379.825409 442.580536,377.426147 446.808136,378.014404 
	C447.644073,377.996124 447.820465,377.998169 448.324493,378.254639 
	C457.113617,378.335571 465.575043,378.162109 474.292480,377.984528 
	C474.719177,377.980469 474.889832,377.980530 475.060516,377.980621 
	C478.701874,377.995697 482.343262,378.010773 486.662323,377.867706 
	C487.545410,377.437714 487.750793,377.165894 487.956177,376.894073 
	C487.997864,371.900543 488.039551,366.907043 488.345428,361.159546 
	C488.476807,358.602600 488.343964,356.799561 488.211121,354.996552 
	C488.166748,351.960968 488.122375,348.925385 488.334717,345.190430 
	C488.460358,343.325867 488.329315,342.160645 488.198303,340.995453 
	C488.143402,339.288940 488.088501,337.582428 488.195892,335.352661 
	C488.420380,334.559601 488.482574,334.289795 488.544739,334.019958 
	C488.356903,334.357300 488.169067,334.694641 487.981232,335.031982 
	C480.833221,335.012268 473.682343,335.111145 466.537964,334.939301 
	C459.465179,334.769226 452.386902,334.467010 445.341522,333.865601 
	C444.152374,333.764130 442.268646,331.939819 442.153168,330.768799 
	C441.542542,324.577026 441.073090,318.332062 441.218628,312.121063 
	C441.294678,308.874237 444.143890,307.978027 447.263733,307.997375 
	C459.066345,308.070618 470.869751,308.012207 482.672882,308.003448 
	C484.309082,308.002228 485.945312,308.003265 488.045654,308.003265 
	C488.045654,305.768555 488.045654,303.837616 488.228607,301.351685 
	C488.555389,300.469208 488.480652,300.199280 488.187347,299.986908 
	C488.149597,296.625916 488.111877,293.264954 488.338043,289.143494 
	C488.470642,286.252258 488.339355,284.121429 488.208099,281.990631 
	C488.152863,270.584595 487.999542,259.176971 488.180573,247.774689 
	C488.200623,246.511475 490.128937,245.278549 491.692200,244.215103 
	C492.212189,244.398636 492.646912,244.451279 492.646912,244.451279 
	C492.646912,244.451279 493.001953,244.182266 493.001953,244.182266 
	C500.298065,244.134674 507.594086,244.066772 514.890259,244.044861 
	C523.292786,244.019638 523.840271,244.536911 523.972229,253.184387 
	C524.063293,259.154938 523.993835,265.127960 523.694092,271.907654 
	C523.259094,273.525879 523.010864,274.336182 523.010071,275.146729 
	C522.988281,298.495392 522.978088,321.844116 523.026672,345.192719 
	C523.029297,346.456329 523.557556,347.718811 523.841187,348.981842 
	C523.892944,360.021149 523.944641,371.060425 523.694214,382.907654 
	C523.257568,384.864258 523.005188,386.012970 523.005371,387.161652 
	C523.012024,435.477203 523.041260,483.792786 523.067627,532.108337 
	C523.368835,538.523499 523.672913,544.938477 523.967468,551.353943 
	C524.005737,552.185730 524.017761,553.020203 524.001770,553.852722 
	C523.960327,556.004517 523.298889,559.781433 523.947205,560.019653 
	C526.449890,560.939514 529.563354,561.468018 532.093750,560.798645 
	C539.025208,558.964905 545.762390,558.619202 552.890259,559.825562 
	C557.056580,560.530579 561.230225,559.480164 563.962219,554.733887 
	C569.257385,545.534424 575.180847,536.687195 581.044617,527.826782 
	C590.052856,514.215088 599.323975,500.777100 608.302490,487.146149 
	C614.049133,478.421722 619.354858,469.407532 625.068054,460.660278 
	C631.247620,451.198822 637.762207,441.956421 643.961243,432.507355 
	C649.415039,424.194275 654.645996,415.734680 659.955688,407.327362 
	C667.789368,394.923370 675.561340,382.480133 683.440735,370.105316 
	C692.936340,355.192383 702.526489,340.339722 712.057922,325.449615 
	C721.504639,310.692047 730.989014,295.958160 740.347168,281.144562 
	C750.312439,265.369873 760.087891,249.475220 770.067627,233.709839 
	C775.018005,225.889557 782.612122,223.973755 791.271484,225.004379 
	C797.828186,225.784729 801.724121,230.340912 804.073242,235.726898 
	C807.334045,243.203079 804.093933,249.948959 799.961548,256.262085 
	C793.577148,266.015778 787.221863,275.788574 780.848816,285.549774 
	C774.491333,295.286987 768.043640,304.966583 761.791382,314.770813 
	C756.315125,323.357910 751.156921,332.147980 745.672607,340.729767 
	C739.411987,350.526367 732.840881,360.124817 726.594543,369.930267 
	C717.596069,384.056152 708.891174,398.369720 699.834778,412.457733 
	C690.298218,427.292511 680.388672,441.887451 670.839722,456.714417 
	C661.744690,470.836639 653.056152,485.221436 643.911255,499.310547 
	C633.984131,514.604919 623.690369,529.660889 613.646973,544.880554 
	C608.130798,553.239746 602.912415,561.796204 597.356384,570.128052 
	C591.679260,578.641541 594.065918,586.649597 597.927612,594.997009 
	C603.762573,607.609619 603.255432,620.451599 597.979004,633.174683 
	C596.440063,636.885498 594.735474,640.527527 592.758789,644.986145 
	C597.470154,644.986145 601.821533,644.986145 606.172974,644.986145 
	C636.832825,644.986084 667.492737,644.970276 698.152588,644.997070 
	C705.806885,645.003784 705.517883,645.150391 703.358887,637.687012 
	C698.091980,619.479919 693.241699,601.152344 687.991638,582.940186 
	C683.243652,566.469604 678.050354,550.127197 673.318359,533.652161 
	C670.303772,523.156494 667.727173,512.533447 665.041992,501.945251 
	C663.617554,496.328094 666.638306,491.751251 669.315308,487.430023 
	C674.568481,478.950226 680.318970,470.777222 685.919800,462.515320 
	C686.851379,461.141113 688.066895,459.959473 689.698853,458.047241 
	C690.784973,460.461395 691.642212,461.829834 692.029602,463.320374 
	C693.763855,469.993317 695.186951,476.751190 697.061829,483.382446 
	C699.028625,490.338776 701.556641,497.136322 703.528015,504.091522 
	C706.813965,515.685181 709.788391,527.366699 713.016724,538.977112 
	C715.081238,546.401855 717.459167,553.739380 719.531738,561.161987 
	C722.773438,572.772156 725.760315,584.454163 729.068359,596.044922 
	C732.596069,608.405151 736.485901,620.662048 740.010071,633.023193 
	C744.505615,648.791443 748.667969,664.655212 753.223389,680.405640 
	C755.494751,688.258850 758.601013,695.872131 760.831299,703.735291 
	C764.121582,715.336121 766.812561,727.105896 770.039429,738.725891 
	C774.469727,754.679688 779.880371,770.397949 783.532471,786.520386 
	C786.895142,801.364990 786.429260,816.441040 777.911194,829.925659 
	C773.870667,836.322021 768.930054,842.157349 764.269592,848.147583 
	C763.398010,849.267822 761.920166,849.916321 760.129395,850.698975 
	C758.163513,850.792664 756.495361,850.527466 755.462830,851.215759 
	C745.287781,857.998291 733.792603,860.866028 721.930908,860.881104 
	C578.638367,861.063477 435.345459,861.072998 292.053284,860.800903 
	C284.135803,860.785889 276.229492,857.870789 268.306091,856.368225 
	C265.542816,855.844177 262.743622,855.509399 259.960846,855.088196 
	C252.151566,851.813721 246.126434,846.139221 241.379303,839.482422 
	C236.913315,833.219849 233.323105,826.257080 229.996277,819.292480 
	C228.523438,816.209106 228.050583,812.341797 228.165939,808.864990 
	C228.475464,799.537476 228.303833,790.003113 230.256241,780.968567 
	C232.780640,769.287292 237.377502,758.068726 240.726517,746.547546 
	C246.230057,727.614258 251.395905,708.583069 256.803650,689.621521 
	C260.716370,675.902161 264.856689,662.247742 268.776276,648.530273 
	C274.237701,629.416687 279.575104,610.267700 284.989166,591.140564 
	C289.976349,573.521667 295.077118,555.934448 299.975067,538.290894 
	C304.437836,522.214722 308.611053,506.058228 313.080566,489.984070 
	C315.186829,482.409119 317.782990,474.971741 319.989716,467.423065 
	C323.725952,454.642273 327.305054,441.815674 330.994049,429.020935 
	C336.904877,408.520050 342.873749,388.035889 348.775391,367.532349 
	C352.764648,353.672668 356.762177,339.814423 360.604248,325.913605 
	C363.854767,314.153168 366.724915,302.286346 370.062378,290.551636 
	C373.344849,279.010284 377.170776,267.623383 380.448639,256.080811 
	C383.509613,245.302048 385.921295,234.337158 389.052551,223.580475 
	C394.098969,206.244583 398.656372,188.458679 413.403595,176.219543 
	C423.148987,168.131531 433.985382,161.341690 447.119995,161.128616 
	C486.369843,160.491943 525.631653,159.860352 564.880066,160.208893 
	C581.580444,160.357208 594.566895,169.419128 605.107544,182.221390 
	C612.633606,191.362213 615.868408,202.232086 618.956116,213.231766 
	C624.039001,231.338730 628.890381,249.511078 634.042236,267.598083 
	C637.162964,278.553894 640.764404,289.371918 643.975098,300.303162 
	C649.682190,319.733124 655.410828,339.159210 660.830933,358.670135 
	C664.319763,371.229095 663.964966,371.225433 655.733093,384.698486 
	C650.615601,393.074249 645.932617,401.714844 640.982666,410.194550 
	C640.539246,410.954132 639.517761,411.916718 638.850891,411.854950 
	C638.169800,411.791840 637.270996,410.679871 637.022827,409.859192 
	C633.965942,399.748291 631.089294,389.582672 628.003113,379.480988 
	C625.803040,372.279755 623.146667,365.213867 621.076538,357.978088 
	C618.826599,350.113892 617.239075,342.059479 614.965881,334.202789 
	C611.847107,323.423737 608.271484,312.777771 605.047791,302.027924 
	C602.284912,292.814789 599.650330,283.560669 597.121399,274.280396 
	C592.687195,258.008331 588.673767,241.614594 583.885193,225.449234 
	C581.634155,217.850220 580.808533,209.511597 575.014221,203.282700 
	C573.846069,202.026932 572.508789,200.928452 571.095520,199.058762 
	C568.818848,196.910339 566.705200,194.212280 564.572144,194.196869 
	C528.811096,193.938263 493.047302,193.954926 457.285461,194.149277 
	C454.871521,194.162399 452.467987,196.077194 450.059631,197.107574 
	C450.059631,197.107574 450.029694,197.033157 449.663330,197.032867 
	C445.517792,196.889267 442.500061,198.059296 440.998138,201.843857 
	C440.998138,201.843857 440.576141,201.998840 440.030762,202.055954 
	C439.027100,203.091721 438.568787,204.070358 438.110504,205.049011 
	C432.067383,211.721298 428.973694,219.933517 426.376190,228.300003 
	C423.043701,239.033707 420.033447,249.869965 417.028351,260.701965 
	C414.837341,268.599579 412.912628,276.570709 410.807251,284.492615 
	C408.909851,291.632019 407.034668,298.780273 404.954742,305.867432 
	C402.736938,313.424286 400.164673,320.877533 397.971924,328.441162 
	C394.219482,341.384949 390.719147,354.401733 386.967194,367.345642 
	C383.889771,377.962646 380.473969,388.482056 377.433960,399.109283 
	C372.525452,416.268585 367.869476,433.500122 362.976990,450.664093 
	C359.860596,461.597107 356.442230,472.443787 353.287781,483.366302 
	C351.195343,490.611298 349.424561,497.949036 347.341736,505.196960 
	C343.977295,516.904846 340.374237,528.544617 337.057617,540.265747 
	C333.604218,552.470276 330.430908,564.753784 327.027069,576.972656 
	C322.075623,594.746948 317.034698,612.496460 312.013855,630.251404 
	C311.051086,633.656006 309.788391,636.990845 309.051910,640.440674 
	C308.132355,644.748169 310.065399,646.691345 314.506805,646.007568 
	C315.320557,645.882263 316.170044,645.988953 317.648804,645.875244 
	C318.571594,645.612305 318.803741,645.411011 318.990997,645.157898 
	C320.069336,645.106506 321.147644,645.055115 322.905243,645.283813 
	C324.729584,645.714722 325.874695,645.865601 327.351013,646.262085 
	C328.988617,646.666016 330.295013,646.962158 331.601501,646.962769 
	C378.809113,646.986023 426.016724,646.991150 473.224304,646.940735 
	C474.809540,646.939026 476.394135,646.338318 478.414764,646.010376 
	C481.557190,645.728210 484.263855,645.452576 486.970551,645.176941 
M502.773712,651.571472 
	C502.581360,651.315552 502.347565,651.105835 501.763702,650.339294 
	C498.286285,644.797729 497.798737,644.584106 494.171814,647.687195 
	C496.928223,648.894531 499.430389,649.990540 502.208496,651.470581 
	C502.422699,651.710938 502.678009,651.893921 503.068207,652.228882 
	C503.068207,652.228882 503.367554,652.231201 503.367554,652.231201 
	C503.367554,652.231201 503.016327,651.978027 502.773712,651.571472 
M516.762451,568.932983 
	C519.731750,567.479492 522.701050,566.026062 525.670410,564.572632 
	C525.401245,564.082703 525.132080,563.592834 524.862854,563.102966 
	C521.297058,564.008606 517.956116,565.315125 515.731934,569.062073 
	C515.731934,569.062073 515.759338,569.377747 515.759338,569.377747 
	C515.759338,569.377747 516.060120,569.075195 516.762451,568.932983 
M725.801697,826.055786 
	C729.937622,824.030457 734.328979,822.395508 738.153076,819.893555 
	C744.868347,815.500305 749.873474,804.468750 748.024902,797.227905 
	C744.219299,782.321472 740.241760,767.456909 736.150696,752.625977 
	C733.254883,742.128235 730.159729,731.682251 726.964417,721.271240 
	C723.781616,710.900696 720.349182,700.606934 717.053284,690.270813 
	C715.402161,685.092468 712.073608,682.972290 705.245239,682.970276 
	C644.443726,682.952209 583.642273,682.937378 522.840759,682.940491 
	C449.212677,682.944214 375.584625,682.972107 301.956543,682.958496 
	C299.083496,682.958008 296.932220,682.815002 295.869843,686.676514 
	C291.100037,704.014038 285.886200,721.229553 280.811493,738.482971 
	C277.186829,750.806274 273.464569,763.101318 269.909912,775.444702 
	C267.819031,782.705078 265.454254,789.949951 264.228180,797.369568 
	C263.603271,801.151184 264.435364,805.639099 265.971222,809.224121 
	C270.410858,819.587158 278.849548,824.926880 290.268616,826.890564 
	C291.989471,827.243469 293.706299,827.876160 295.431915,827.901123 
	C303.262177,828.014404 311.094940,827.959534 318.926788,827.959412 
	C443.070282,827.958069 567.213745,827.965942 691.357178,827.882324 
	C693.849426,827.880676 696.340942,826.809692 699.626770,826.128235 
	C703.507935,826.168030 707.389160,826.207825 711.960083,827.119141 
	C716.402405,828.045471 720.879883,829.475159 725.801697,826.055786 
z" data-index="1" style="opacity: 1; visibility: visible; fill: rgb(0, 238, 255);"></path>
<path fill="#00FCFD" opacity="1.000000" stroke="none" d="
M260.112488,855.428101 
	C262.743622,855.509399 265.542816,855.844177 268.306091,856.368225 
	C276.229492,857.870789 284.135803,860.785889 292.053284,860.800903 
	C435.345459,861.072998 578.638367,861.063477 721.930908,860.881104 
	C733.792603,860.866028 745.287781,857.998291 755.462830,851.215759 
	C756.495361,850.527466 758.163513,850.792664 759.794312,850.858093 
	C747.933716,860.020935 734.144592,863.070312 719.352234,863.034607 
	C677.540833,862.933594 635.729126,862.972778 593.348755,862.778564 
	C592.468994,862.464722 592.209900,862.538025 592.002686,862.820435 
	C553.840515,862.873901 515.678406,862.958984 477.516235,862.973694 
	C414.018463,862.998108 350.520325,863.073181 287.023346,862.848450 
	C279.516998,862.821899 271.880341,861.673096 265.098114,857.646851 
	C263.631714,856.776367 261.882843,856.381775 260.112488,855.428101 
z" data-index="2" style="opacity: 1;"></path>
<path fill="#00FDFF" opacity="1.000000" stroke="none" d="
M450.522400,197.059311 
	C452.467987,196.077194 454.871521,194.162399 457.285461,194.149277 
	C493.047302,193.954926 528.811096,193.938263 564.572144,194.196869 
	C566.705200,194.212280 568.818848,196.910339 570.951050,198.740723 
	C569.059326,198.413681 567.159973,197.094482 565.256470,197.088654 
	C527.166382,196.972046 489.075684,197.006836 450.522400,197.059311 
z" data-index="3"></path>
<path fill="#02E0EB" opacity="1.000000" stroke="none" d="
M477.979034,646.016846 
	C476.394135,646.338318 474.809540,646.939026 473.224304,646.940735 
	C426.016724,646.991150 378.809113,646.986023 331.601501,646.962769 
	C330.295013,646.962158 328.988617,646.666016 327.817444,646.261292 
	C374.531128,646.011536 421.109528,646.019531 467.687927,645.967957 
	C469.784698,645.965637 471.880890,645.424072 473.977356,645.133667 
	C474.742615,645.079529 475.507843,645.025391 476.771301,645.236572 
	C477.470459,645.722595 477.706970,645.894226 477.979034,646.016846 
z" data-index="4"></path>
<path fill="#00FFFF" opacity="1.000000" stroke="none" d="
M473.513336,645.073486 
	C471.880890,645.424072 469.784698,645.965637 467.687927,645.967957 
	C421.109528,646.019531 374.531128,646.011536 327.486267,646.015686 
	C325.874695,645.865601 324.729584,645.714722 323.304199,645.360474 
	C350.601685,645.104736 378.179474,645.034302 405.757324,645.005615 
	C428.187958,644.982300 450.618652,645.008911 473.513336,645.073486 
z" data-index="5"></path>
<path fill="#00D5FF" opacity="1.000000" stroke="none" d="
M523.437744,531.872314 
	C523.041260,483.792786 523.012024,435.477203 523.005371,387.161652 
	C523.005188,386.012970 523.257568,384.864258 523.616333,383.372467 
	C523.893372,420.434021 523.965576,457.838684 523.987854,495.243317 
	C523.995117,507.374268 523.871643,519.505310 523.437744,531.872314 
z" data-index="6"></path>
<path fill="#00D5FF" opacity="1.000000" stroke="none" d="
M523.911133,348.519531 
	C523.557556,347.718811 523.029297,346.456329 523.026672,345.192719 
	C522.978088,321.844116 522.988281,298.495392 523.010071,275.146729 
	C523.010864,274.336182 523.259094,273.525879 523.616272,272.372437 
	C523.887390,297.372009 523.934204,322.714630 523.911133,348.519531 
z" data-index="7"></path>

<path fill="#00FDFF" opacity="1.000000" stroke="none" d="
M441.364502,201.911957 
	C442.500061,198.059296 445.517792,196.889267 449.700439,197.048035 
	C447.312897,198.702347 444.521851,200.341202 441.364502,201.911957 
z" data-index="9" style="visibility: hidden;"></path>
<path fill="#04DCE6" opacity="1.000000" stroke="none" d="
M451.871613,519.530945 
	C450.189880,520.054871 448.342834,520.225647 446.226288,520.139709 
	C447.873291,519.647888 449.789825,519.412842 451.871613,519.530945 
z" data-index="10"></path>
<path fill="#00FFFF" opacity="1.000000" stroke="none" d="
M478.414764,646.010376 
	C477.706970,645.894226 477.470459,645.722595 477.148224,645.317810 
	C480.044830,645.095093 483.062683,645.056519 486.525574,645.097412 
	C484.263855,645.452576 481.557190,645.728210 478.414764,646.010376 
z" data-index="11"></path>
<path fill="#00FFFF" opacity="1.000000" stroke="none" d="
M464.530823,377.070312 
	C462.203278,377.278595 459.431488,377.429504 456.347504,377.354065 
	C458.719086,377.089447 461.402832,377.051178 464.530823,377.070312 
z" data-index="12"></path>
<path fill="#04D7E0" opacity="1.000000" stroke="none" d="
M488.104706,560.433838 
	C488.332153,562.773804 488.470428,565.557312 488.405670,568.668213 
	C488.140289,566.289490 488.077881,563.583374 488.104706,560.433838 
z" data-index="13"></path>
<path fill="#04D7E0" opacity="1.000000" stroke="none" d="
M488.116760,282.421387 
	C488.339355,284.121429 488.470642,286.252258 488.402618,288.689240 
	C488.144043,286.947662 488.084747,284.899902 488.116760,282.421387 
z" data-index="14"></path>
<path fill="#00FDFF" opacity="1.000000" stroke="none" d="
M438.413788,204.930557 
	C438.568787,204.070358 439.027100,203.091721 439.807037,202.077728 
	C439.658142,202.965622 439.187622,203.888855 438.413788,204.930557 
z" data-index="15"></path>
<path fill="#00FFFF" opacity="1.000000" stroke="none" d="
M474.292480,377.984558 
	C472.562622,377.850433 471.088715,377.712158 469.325073,377.350800 
	C470.928741,377.166779 472.822113,377.205872 474.888000,377.612793 
	C474.889832,377.980530 474.719177,377.980469 474.292480,377.984558 
z" data-index="16"></path>
<path fill="#04DCE6" opacity="1.000000" stroke="none" d="
M487.054199,475.428284 
	C490.564026,473.841858 488.547760,476.342926 488.360962,477.739746 
	C487.829193,477.241882 487.488464,476.490082 487.054199,475.428284 
z" data-index="17"></path>
<path fill="#04DCE6" opacity="1.000000" stroke="none" d="
M488.121887,355.417816 
	C488.343964,356.799561 488.476807,358.602600 488.413025,360.696655 
	C488.155182,359.271515 488.093933,357.555298 488.121887,355.417816 
z" data-index="18"></path>
<path fill="#04DCE6" opacity="1.000000" stroke="none" d="
M488.113220,419.406189 
	C488.330658,420.478210 488.464233,421.960999 488.404327,423.716309 
	C488.150330,422.598206 488.089844,421.207581 488.113220,419.406189 
z" data-index="19"></path>
<path fill="#04D7E0" opacity="1.000000" stroke="none" d="
M488.121155,600.315796 
	C488.227814,600.765930 488.250458,601.542419 488.132874,602.152649 
	C488.007446,601.538330 488.022308,601.090271 488.121155,600.315796 
z" data-index="20"></path>
<path fill="#04D7E0" opacity="1.000000" stroke="none" d="
M488.122345,594.386902 
	C488.337921,595.159607 488.464569,596.326233 488.402405,597.740723 
	C488.153503,596.919373 488.093445,595.850037 488.122345,594.386902 
z" data-index="21"></path>
<path fill="#04D7E0" opacity="1.000000" stroke="none" d="
M488.100403,551.385071 
	C488.309998,552.157959 488.432953,553.325989 488.370361,554.745483 
	C488.127808,553.924622 488.070801,552.852478 488.100403,551.385071 
z" data-index="22"></path>
<path fill="#04DCE6" opacity="1.000000" stroke="none" d="
M488.116852,341.390198 
	C488.329315,342.160645 488.460358,343.325867 488.402649,344.739868 
	C488.154419,343.920746 488.094910,342.852814 488.116852,341.390198 
z" data-index="23"></path>
<path fill="#04DCE6" opacity="1.000000" stroke="none" d="
M487.740234,519.034302 
	C488.184113,519.396606 488.370026,519.797119 488.555969,520.197632 
	C488.133362,520.238770 487.710724,520.279968 487.132263,520.128296 
	C487.145020,519.647766 487.313660,519.360107 487.740234,519.034302 
z" data-index="24"></path>
<path fill="#04DCE6" opacity="1.000000" stroke="none" d="
M488.109863,513.389282 
	C488.323151,514.160828 488.448578,515.325928 488.386200,516.739868 
	C488.139618,515.920105 488.080811,514.851440 488.109863,513.389282 
z" data-index="25"></path>
<path fill="#04D7E0" opacity="1.000000" stroke="none" d="
M488.109589,587.360474 
	C488.320190,587.847168 488.440704,588.704346 488.381897,589.778687 
	C488.141571,589.240906 488.080536,588.485962 488.109589,587.360474 
z" data-index="26"></path>
<path fill="#04DCE6" opacity="1.000000" stroke="none" d="
M484.633789,520.092163 
	C484.150848,520.296692 483.298798,520.415161 482.228973,520.356689 
	C482.762360,520.121826 483.513550,520.063904 484.633789,520.092163 
z" data-index="27"></path>
<path fill="#04DCE6" opacity="1.000000" stroke="none" d="
M467.633545,520.107483 
	C467.149902,520.314514 466.297485,520.434937 465.228882,520.376282 
	C465.763397,520.138428 466.514038,520.079651 467.633545,520.107483 
z" data-index="28"></path>
<path fill="#04D7E0" opacity="1.000000" stroke="none" d="
M488.148315,547.318726 
	C488.339264,547.547180 488.424225,548.102295 488.348206,548.828003 
	C488.138947,548.547546 488.090637,548.096497 488.148315,547.318726 
z" data-index="29"></path>
<path fill="#04DCE6" opacity="1.000000" stroke="none" d="
M488.135956,498.243469 
	C488.509399,498.203003 488.584045,498.469116 488.323853,498.894653 
	C488.156921,498.830017 488.106323,498.662048 488.135956,498.243469 
z" data-index="30"></path>
<path fill="#00F0F1" opacity="1.000000" stroke="none" d="
M592.248901,862.893250 
	C592.209900,862.538025 592.468994,862.464722 592.883728,862.710205 
	C592.823364,862.868652 592.659241,862.917358 592.248901,862.893250 
z" data-index="31"></path>
<path fill="#00FFFF" opacity="1.000000" stroke="none" d="
M447.714844,377.105408 
	C447.982056,377.127594 448.007416,377.563599 448.002136,377.781921 
	C447.820465,377.998169 447.644073,377.996124 447.203125,377.986786 
	C447.108246,377.680725 447.277954,377.381958 447.714844,377.105408 
z" data-index="32"></path>
<path fill="#02E0EB" opacity="1.000000" stroke="none" d="
M492.753906,244.108643 
	C493.001953,244.182266 492.646912,244.451279 492.646912,244.451279 
	C492.646912,244.451279 492.212189,244.398636 492.109314,244.284760 
	C492.172913,244.125595 492.339355,244.080307 492.753906,244.108643 
z" data-index="33"></path>
<path fill="#04DCE6" opacity="1.000000" stroke="none" d="
M487.687317,376.961609 
	C487.750793,377.165894 487.545410,377.437714 487.113861,377.833862 
	C487.064606,377.648499 487.241547,377.338806 487.687317,376.961609 
z" data-index="34"></path>
<path fill="#04DCE6" opacity="1.000000" stroke="none" d="
M488.122986,447.246826 
	C488.490143,447.189850 488.579163,447.452515 488.350281,447.888031 
	C488.177155,447.831146 488.114655,447.666351 488.122986,447.246826 
z" data-index="35"></path>
<path fill="#04D7E0" opacity="1.000000" stroke="none" d="
M488.109985,300.240540 
	C488.480652,300.199280 488.555389,300.469208 488.293610,300.900757 
	C488.127960,300.834564 488.080292,300.664337 488.109985,300.240540 
z" data-index="36"></path>

<path fill="#04D7E0" opacity="1.000000" stroke="none" d="
M488.135712,572.241089 
	C488.517914,572.195496 488.597290,572.465149 488.332977,572.899963 
	C488.161224,572.834473 488.109100,572.664917 488.135712,572.241089 
z" data-index="38"></path>

<path fill="#02C5D1" opacity="1.000000" stroke="none" d="
M290.114014,826.534180 
	C291.659973,826.114380 293.360474,826.050903 295.961182,825.985107 
	C352.265167,825.982422 407.668976,825.982056 463.072815,825.981689 
	C466.057404,825.987610 469.041992,825.993469 472.947174,825.990417 
	C547.603699,825.982117 621.339661,825.982666 695.075623,825.983276 
	C696.185974,825.956604 697.296387,825.929871 698.619751,826.070435 
	C696.340942,826.809692 693.849426,827.880676 691.357178,827.882324 
	C567.213745,827.965942 443.070282,827.958069 318.926788,827.959412 
	C311.094940,827.959534 303.262177,828.014404 295.431915,827.901123 
	C293.706299,827.876160 291.989471,827.243469 290.114014,826.534180 
z" data-index="40" style="opacity: 1;"></path>
<path fill="#04D7E0" opacity="1.000000" stroke="none" d="
M711.615234,826.683350 
	C715.551880,826.172913 719.833496,826.098206 724.571838,826.114136 
	C720.879883,829.475159 716.402405,828.045471 711.615234,826.683350 
z" data-index="41"></path>
<path fill="#01C9FD" opacity="1.000000" stroke="none" d="
M515.909912,568.928955 
	C517.956116,565.315125 521.297058,564.008606 524.862854,563.102966 
	C525.132080,563.592834 525.401245,564.082703 525.670410,564.572632 
	C522.701050,566.026062 519.731750,567.479492 516.375305,568.965942 
	C515.988159,568.998840 515.909912,568.928955 515.909912,568.928955 
z" data-index="42"></path>
<path fill="#01C9FD" opacity="1.000000" stroke="none" d="
M501.932587,651.086548 
	C499.430389,649.990540 496.928223,648.894531 494.171814,647.687195 
	C497.798737,644.584106 498.286285,644.797729 501.880920,650.675598 
	C501.998169,651.011902 501.932587,651.086487 501.932587,651.086548 
z" data-index="43" style="opacity: 1;"></path>
<path fill="#04DCE6" opacity="1.000000" stroke="none" d="
M487.990509,335.015442 
	C488.169067,334.694641 488.356903,334.357300 488.544739,334.019958 
	C488.482574,334.289795 488.420380,334.559601 488.164459,334.926331 
	C487.970734,335.023224 487.999786,334.998901 487.990509,335.015442 
z" data-index="44"></path>
<path fill="#04DCE6" opacity="1.000000" stroke="none" d="
M487.987183,405.014404 
	C488.061035,405.009949 488.146240,404.989044 488.099976,404.996735 
	C487.968567,405.025360 487.998474,404.997925 487.987183,405.014404 
z" data-index="45"></path>
<path fill="#01C9FD" opacity="1.000000" stroke="none" d="
M503.016327,651.978027 
	C503.016327,651.978027 503.367554,652.231201 503.367554,652.231201 
	C503.367554,652.231201 503.068207,652.228882 503.033081,652.114990 
	C502.997925,652.001038 503.016327,651.978027 503.016327,651.978027 
z" data-index="46"></path>
<path fill="#01C9FD" opacity="1.000000" stroke="none" d="
M502.986176,652.010315 
	C502.678009,651.893921 502.422699,651.710938 502.070557,651.278564 
	C501.932587,651.086487 501.998169,651.011902 502.035278,650.977051 
	C502.347565,651.105835 502.581360,651.315552 502.895020,651.774780 
	C503.016327,651.978027 502.997925,652.001038 502.986176,652.010315 
z" data-index="47"></path>
<path fill="#01C9FD" opacity="1.000000" stroke="none" d="
M516.024170,569.036987 
	C516.060120,569.075195 515.759338,569.377747 515.759338,569.377747 
	C515.759338,569.377747 515.731934,569.062073 515.820923,568.995483 
	C515.909912,568.928955 515.988159,568.998840 516.024170,569.036987 
z" data-index="48"></path>
<path fill="#00FFFF" opacity="1.000000" stroke="none" d="
M694.867126,825.593933 
	C621.339661,825.982666 547.603699,825.982117 473.394104,825.980835 
	C474.091675,825.653442 475.262726,825.041443 476.434174,825.040771 
	C548.682739,824.997925 620.931335,825.004700 693.179932,825.015747 
	C693.672852,825.015869 694.165710,825.138977 694.867126,825.593933 
z" data-index="49" style="opacity: 1;"></path>
<path fill="#00FFFF" opacity="1.000000" stroke="none" d="
M462.864807,825.592468 
	C407.668976,825.982056 352.265167,825.982422 296.387207,825.980713 
	C297.085388,825.652466 298.257446,825.041870 299.430054,825.040894 
	C353.346161,824.996399 407.262299,825.004578 461.178436,825.015686 
	C461.671234,825.015808 462.164001,825.138000 462.864807,825.592468 
z" data-index="50" style="opacity: 1;"></path>
</svg>